# xmcd
# Track frame offsets:
# 150
# 14789
# 33421
# 50488
# 69502
# 90662
# 109371
# 123677
# 142323
# 158181
#
# Disc length: 2351 seconds
# Revision: 0
# Processed by: cddbd v1.5.1PL2 Copyright (c) Steve Scherf et al.
# Submitted via: VisiTrax 2.10.0.248 - For more info visit www.synapsa.com
#
DISCID=97092d0a
DTITLE=Quality Singers - Music of Sheryl Crow
DYEAR=2005
DGENRE=
TTITLE0=Skoak Up The Sun
TTITLE1=All I Wanna Do
TTITLE2=The First Cut Is The Deepest
TTITLE3=Everyday Is A Winding Road
TTITLE4=If It Makes You Happy
TTITLE5=My Favorite Mistake
TTITLE6=Strong Enough
TTITLE7=Anything But Down
TTITLE8=Can't Cry Anymore
TTITLE9=Light In Your Eyes
EXTD=
EXTT0=
EXTT1=
EXTT2=
EXTT3=
EXTT4=
EXTT5=
EXTT6=
EXTT7=
EXTT8=
EXTT9=
PLAYORDER=
